<svg width="643" height="419" viewBox="0 0 643 419" fill="none" xmlns="http://www.w3.org/2000/svg">
<rect width="643" height="419" fill="#97BEF4"/>
<path d="M353.875 167.75H289.125C284.016 167.75 279.875 171.854 279.875 176.917V241.083C279.875 246.146 284.016 250.25 289.125 250.25H353.875C358.984 250.25 363.125 246.146 363.125 241.083V176.917C363.125 171.854 358.984 167.75 353.875 167.75Z" stroke="#FAFAFB" stroke-width="5" stroke-linecap="round" stroke-linejoin="round"/>
<path d="M305.312 199.833C309.144 199.833 312.25 196.755 312.25 192.958C312.25 189.161 309.144 186.083 305.312 186.083C301.481 186.083 298.375 189.161 298.375 192.958C298.375 196.755 301.481 199.833 305.312 199.833Z" stroke="#FAFAFB" stroke-width="5" stroke-linecap="round" stroke-linejoin="round"/>
<path d="M363.125 222.75L340 199.833L289.125 250.25" stroke="#FAFAFB" stroke-width="5" stroke-linecap="round" stroke-linejoin="round"/>
</svg>
